<svg width="265" height="120" viewBox="0 0 265 120" fill="none" xmlns="http://www.w3.org/2000/svg">
<g clip-path="url(#clip0_77_241)">
<path d="M38.6893 31.5425C43.0886 32.7439 46.6542 34.9533 49.3761 38.1707C51.5657 40.767 53.0522 43.5771 53.8457 46.601C54.6392 49.625 55.0409 52.5064 55.0409 55.2452C55.0409 62.189 53.3636 68.0638 50.0189 72.8899C45.4791 79.3857 38.4684 82.6336 28.9869 82.6336H1.93848V30.4124H28.9768C32.8638 30.4633 36.098 30.84 38.6893 31.5425ZM14.6642 39.4841V73.5618H26.7672C32.9643 73.5618 37.2832 71.0266 39.7239 65.946C41.0597 63.1563 41.7226 59.8371 41.7226 55.9885C41.7226 50.6737 40.7182 46.5909 38.7195 43.7502C36.7207 40.9096 32.7333 39.4841 26.7672 39.4841H14.6642Z" fill="black"/>
<path d="M94.0014 39.6572H66.7119V50.7449H91.7616V59.8167H66.7119V73.2462H95.2568V82.6336H56.1758V30.4124H94.0014V39.6572Z" fill="black"/>
<path d="M174.795 82.6235V73.8775L198.971 50.6431C200.066 49.6046 200.92 48.5356 201.512 47.4359C202.105 46.3363 202.406 45.3182 202.406 44.3713V44.3C202.406 42.9051 201.793 41.8361 200.568 41.0725C199.343 40.319 197.595 39.9423 195.335 39.9423C193.075 39.9423 191.398 40.4718 190.032 41.5205C188.656 42.5692 187.832 44.0658 187.541 46.0003V46.0411H173.931V46.0003C174.383 41.1132 176.523 37.3256 180.349 34.6275C184.176 31.9396 189.138 30.5854 195.245 30.5854C201.864 30.5854 206.986 31.7563 210.622 34.0879C214.258 36.4297 216.076 39.7285 216.076 44.0048V44.0353C216.076 46.3771 215.523 48.6985 214.409 50.9995C213.294 53.3005 211.737 55.3878 209.738 57.251L192.392 73.2666H216.468V82.6133H174.805L174.795 82.6235Z" fill="black"/>
<path d="M217.894 74.7225V65.7933L238.896 31.1454H253.429L232.99 65.3656H263.604V74.7123H217.894V74.7225ZM245.414 82.6641V52.3434H258.261V82.6641H245.414Z" fill="black"/>
<path d="M128.543 42.6404L128.241 42.1822C127.9 41.6629 127.689 41.2659 127.629 41.0215L127.518 40.5939H129.688L128.553 42.6505L128.543 42.6404ZM128.472 41.2659C128.472 41.2659 128.492 41.2964 128.502 41.3168L128.533 41.2659H128.482H128.472Z" fill="black"/>
<path d="M133.032 34.5359H124.204L123.039 31.4305L123.712 30.0662H135.513L133.042 34.5359H133.032ZM124.666 33.8435H132.641L134.358 30.7483H124.123L123.772 31.461L124.666 33.8435Z" fill="black"/>
<path d="M121.351 55.6015L127.809 43.964L127.669 43.7807C125.791 41.2964 124.194 38.6798 123.179 36.3889C122.888 35.7271 122.597 35.0246 122.295 34.2304L122.024 33.4974L115.556 46.6418L107.631 30.0662H95.4477L109.6 56.019L94.7446 82.9696H106.607L115.556 65.5795L118.991 72.6455C119.061 72.2382 119.121 71.8411 119.172 71.4746L115.576 64.0726L106.205 82.2874H95.8997L110.383 56.0292L96.6128 30.7687H107.229L115.566 48.1995L121.954 35.1977C122.165 35.7271 122.366 36.2158 122.587 36.6842C123.591 38.9649 125.168 41.5713 127.026 44.0353L120.608 55.6015L135.252 82.2976H124.455L120.156 73.4804C120.276 74.1727 120.377 74.9363 120.507 75.7407L124.033 82.99H136.397L121.371 55.6219L121.351 55.6015Z" fill="black"/>
<path d="M130.28 39.4943L126.986 39.4332C126.082 39.138 124.766 36.7351 124.746 35.6559V35.3097H132.6L130.28 39.4943ZM127.157 38.7612L129.899 38.802L131.455 35.9919H125.479C125.71 36.9693 126.685 38.5372 127.167 38.7612H127.157Z" fill="black"/>
<path d="M102.5 30.5L130 83" stroke="black" stroke-width="2"/>
<path d="M151.242 18.785H159.97C161.105 18.9581 159.307 21.0352 158.936 21.4322C156.917 23.55 153.853 24.6496 151.252 25.5252V18.785H151.242Z" fill="black"/>
<path d="M145.768 49.5333C144.904 49.7268 144.523 48.7799 144.141 48.5661C143.086 47.9857 142.192 47.7719 141.158 46.9574C135.654 42.6811 136.919 34.1693 142.212 30.4327C148.872 25.739 162.863 25.6677 162.451 13.6433C162.351 10.6804 160.101 5.57947 156.907 6.5569C156.153 6.79107 154.416 8.60339 153.733 8.84775C152.417 9.33646 146.521 9.95754 145.758 8.63394C145.376 7.96195 145.386 6.17 145.758 5.43692C158.293 -10.6092 175.358 12.7473 161.386 25.3623C157.409 29.8931 150.981 30.8196 145.949 33.4668C140.545 36.3176 140.053 42.2738 145.778 44.8498V49.5333H145.768ZM150.78 3.63478C150.107 4.37804 150.71 5.81364 151.875 5.62019C153.874 5.2842 152.035 2.26027 150.78 3.63478Z" fill="black"/>
<path d="M150.981 41.327C154.195 41.4492 158.142 45.7866 158.283 49.3705C158.614 57.7703 152.015 58.7375 147.154 62.0567C146.3 62.6371 145.175 63.4719 145.005 64.6225C144.533 67.9213 146.481 67.5955 146.561 69.5911C146.602 70.5787 145.889 73.0426 144.774 72.2994C144.663 72.2281 144.613 71.7903 144.442 71.6681C136.839 66.0173 143.538 56.7419 150.248 55.0721C151.654 53.4635 154.486 52.9951 154.597 50.2359C154.707 47.6396 152.437 46.9269 150.971 45.5727V41.327H150.981Z" fill="black"/>
<path d="M153.15 60.8451C157.208 64.3272 155.933 69.927 152.407 73.2564C150.348 75.1909 145.356 76.036 145.286 79.8439C145.256 81.5951 146.672 82.4809 146.712 83.8961C146.843 88.7426 143.147 85.0772 142.554 82.5827C141.469 78.0316 143.92 74.3051 147.003 71.8004C148.45 70.6194 151.965 69.2856 152.256 67.2493C152.628 64.6326 151.272 65.1417 151.011 64.2864C150.83 63.6857 150.901 60.896 151.292 60.448C152.598 59.5316 152.548 60.3462 153.15 60.8552V60.8451Z" fill="black"/>
<path d="M150.459 32.5403L150.207 53.718C148.902 54.3288 148.108 55.7135 146.551 55.6728L146.351 34.4951C146.22 33.4057 150.238 32.2959 150.448 32.5301L150.459 32.5403Z" fill="black"/>
<path d="M147.927 89.1498C146.3 90.8196 147.566 93.2937 147.335 95.33L146.682 95.5031C144.161 92.9883 144.894 88.4778 147.064 85.963C148.239 84.6088 152.286 82.4503 151.975 80.1798C150.71 78.6628 149.675 75.2621 152.045 74.5494C155.932 76.3923 155.551 82.5827 152.949 85.5557C151.523 87.1848 149.113 87.9382 147.937 89.1498H147.927Z" fill="black"/>
<path d="M147.787 11.5255C150.207 11.1285 152.096 13.2462 151.744 15.9851C151.393 18.7239 148.6 19.2432 146.541 18.6526C143.518 17.7668 144.442 12.0753 147.787 11.5357V11.5255Z" fill="black"/>
<path d="M150.459 25.8102L146.29 27.5615L146.14 19.6402L146.451 19.406C147.767 19.6911 149.424 18.4897 150.449 19.5078V25.8001L150.459 25.8102Z" fill="black"/>
<path d="M148.631 94.6276C149.334 94.5461 150.619 93.365 150.911 92.6421C151.594 90.8909 149.796 88.8139 151.413 87.6328L152.156 87.8874C153.984 92.4691 152.136 96.1955 148.5 98.4355L147.596 97.8551V101.958C146.642 101.246 146.692 99.1482 146.843 98.0282C147.024 96.5926 147.938 95.7577 148.641 94.6377C148.47 94.6581 148.289 94.6377 148.118 94.6377C148.008 92.2858 147.345 89.5469 149.936 88.7833C149.826 89.9949 150.117 91.512 149.886 92.6727C149.735 93.4159 149.042 93.9963 148.641 94.6377L148.631 94.6276Z" fill="black"/>
<path d="M147.074 70.6194V62.7083L149.806 61.2523L150.197 61.6799V68.7154L147.074 70.6194Z" fill="black"/>
<path d="M149.936 75.8832V82.9085C149.555 82.6947 147.335 85.3826 147.335 83.9369V77.1966C148.098 76.5247 148.892 75.7203 149.936 75.8832Z" fill="black"/>
<path d="M147.586 109.269C146.622 108.576 146.732 106.937 147.074 105.909C147.827 103.679 150.117 103.567 150.207 100.635C150.248 99.3823 149.514 98.3336 150.579 97.5598C151.965 99.3925 151.614 102.742 150.197 104.453C148.861 106.072 147.044 106.041 147.576 109.269H147.586Z" fill="black"/>
<path d="M149.414 106.051V114.98L149.022 115.418L148.379 114.98V107.365C148.379 107.049 148.952 105.797 149.424 106.051H149.414Z" fill="black"/>
<path d="M145.768 41.327C145.818 41.7954 145.748 43.5466 145.376 43.6688L143.428 42.6405L142.644 41.4696L145.768 41.327Z" fill="black"/>
<path d="M149.414 98.7307C149.263 100.105 149.996 102.763 148.379 103.119C148.148 101.683 147.496 98.7002 149.414 98.7307Z" fill="black"/>
<path d="M142.644 38.4049L142.765 37.2238C146.391 35.3199 147.184 39.3212 142.644 38.4049Z" fill="black"/>
<path d="M153.582 50.9995L153.321 52.0177L150.981 52.4555L151.222 51.1217L153.582 50.9995Z" fill="black"/>
<path d="M153.321 48.6476L151.232 48.5152C150.77 48.1589 150.86 46.8658 151.523 47.0084C152.216 47.3545 153.331 47.5785 153.331 48.6476H153.321Z" fill="black"/>
<path d="M265 92.469H173.048L171.39 99.1074L168.468 82.0431L165.123 92.469C164.129 90.4531 164.319 86.5433 161.377 86.7877C162.712 94.4544 153.462 91.4101 153.04 93.9148C152.498 97.1016 159.177 96.6435 160.603 95.8493C161.839 94.8922 160.402 91.6036 163.034 92.469C162.712 93.8028 164.44 103.037 166.358 101.001C167.503 99.7896 166.479 92.4283 168.859 91.5221L171.782 109.523L175.187 96.2057L264.99 95.7882V92.4588L265 92.469Z" fill="black"/>
<path d="M143.649 93.029V96.5009L132.49 96.9082L129.738 104.351L126.052 99.1278C125.138 105.96 124.716 113.596 121.863 120L119.694 111.621L115.857 80.8519L112.151 101.734C109.77 102.091 110.715 101.51 110.222 100.502C108.937 97.8856 108.485 94.1083 107.511 91.288L105.11 96.562L0.0100098 96.3686V93.029H103.362C105.894 91.5934 104.658 85.2605 107.983 85.1892C109.359 85.1485 109.278 92.4894 111.237 93.0188C111.146 90.1375 114.029 78.8665 115.234 72.6353C115.315 72.2281 115.385 71.831 115.445 71.4645C115.686 70.1409 115.797 69.1431 115.727 68.6951C115.727 68.6951 116.068 70.5379 116.56 73.46C116.691 74.1524 116.821 74.916 116.962 75.7204C118.579 85.1485 121.241 101.52 121.442 108.678L125.148 90.4124C127.408 90.1375 126.614 90.4124 127.086 91.624C127.85 93.6196 128.131 96.1548 128.854 98.242L130.692 93.029H143.659H143.649Z" fill="black"/>
<path d="M124.5 40L101 82.5" stroke="black" stroke-width="2"/>
</g>
<defs>
<clipPath id="clip0_77_241">
<rect width="265" height="120" fill="white"/>
</clipPath>
</defs>
</svg>
