<svg width="400" height="400" viewBox="0 0 400 400" fill="none" xmlns="http://www.w3.org/2000/svg">
<rect width="400" height="400" fill="#06090E"/>
<g clip-path="url(#clip0_77_203)">
<path d="M105.689 171.543C110.089 172.744 113.654 174.953 116.376 178.171C118.566 180.767 120.052 183.577 120.846 186.601C121.639 189.625 122.041 192.506 122.041 195.245C122.041 202.189 120.364 208.064 117.019 212.89C112.479 219.386 105.468 222.634 95.9869 222.634H68.9385V170.412H95.9768C99.8638 170.463 103.098 170.84 105.689 171.543ZM81.6642 179.484V213.562H93.7672C99.9643 213.562 104.283 211.027 106.724 205.946C108.06 203.156 108.723 199.837 108.723 195.988C108.723 190.674 107.718 186.591 105.719 183.75C103.721 180.91 99.7333 179.484 93.7672 179.484H81.6642Z" fill="#FFD600"/>
<path d="M161.001 179.657H133.712V190.745H158.762V199.817H133.712V213.246H162.257V222.634H123.176V170.412H161.001V179.657Z" fill="#FFD600"/>
<path d="M241.795 222.623V213.877L265.971 190.643C267.066 189.605 267.92 188.536 268.512 187.436C269.105 186.336 269.406 185.318 269.406 184.371V184.3C269.406 182.905 268.793 181.836 267.568 181.072C266.343 180.319 264.595 179.942 262.335 179.942C260.075 179.942 258.398 180.472 257.032 181.52C255.656 182.569 254.832 184.066 254.541 186V186.041H240.931V186C241.383 181.113 243.523 177.326 247.349 174.628C251.176 171.94 256.138 170.585 262.245 170.585C268.864 170.585 273.986 171.756 277.622 174.088C281.258 176.43 283.076 179.729 283.076 184.005V184.035C283.076 186.377 282.523 188.698 281.409 190.999C280.294 193.301 278.737 195.388 276.738 197.251L259.392 213.267H283.468V222.613H241.805L241.795 222.623Z" fill="#FFD600"/>
<path d="M284.894 214.723V205.793L305.896 171.145H320.429L299.99 205.366H330.604V214.712H284.894V214.723ZM312.414 222.664V192.343H325.261V222.664H312.414Z" fill="#FFD600"/>
<path d="M195.543 182.64L195.241 182.182C194.9 181.663 194.689 181.266 194.629 181.022L194.518 180.594H196.688L195.553 182.651L195.543 182.64ZM195.472 181.266C195.472 181.266 195.492 181.296 195.502 181.317L195.533 181.266H195.482H195.472Z" fill="#FFD600"/>
<path d="M200.032 174.536H191.204L190.039 171.43L190.712 170.066H202.513L200.042 174.536H200.032ZM191.666 173.844H199.641L201.358 170.748H191.123L190.772 171.461L191.666 173.844Z" fill="#FFD600"/>
<path d="M188.351 195.602L194.809 183.964L194.669 183.781C192.791 181.296 191.194 178.68 190.179 176.389C189.888 175.727 189.597 175.025 189.295 174.23L189.024 173.497L182.556 186.642L174.631 170.066H162.448L176.6 196.019L161.745 222.97H173.607L182.556 205.579L185.991 212.645C186.061 212.238 186.121 211.841 186.172 211.475L182.576 204.073L173.205 222.287H162.9L177.383 196.029L163.613 170.769H174.229L182.566 188.2L188.954 175.198C189.165 175.727 189.366 176.216 189.587 176.684C190.591 178.965 192.168 181.571 194.026 184.035L187.608 195.602L202.252 222.298H191.455L187.156 213.48C187.276 214.173 187.377 214.936 187.507 215.741L191.033 222.99H203.397L188.371 195.622L188.351 195.602Z" fill="#FFD600"/>
<path d="M197.28 179.494L193.986 179.433C193.082 179.138 191.766 176.735 191.746 175.656V175.31H199.6L197.28 179.494ZM194.157 178.761L196.899 178.802L198.455 175.992H192.479C192.71 176.969 193.685 178.537 194.167 178.761H194.157Z" fill="#FFD600"/>
<path d="M169.5 170.5L197 223" stroke="#FFD600" stroke-width="2"/>
<path d="M218.242 158.785H226.97C228.105 158.958 226.307 161.035 225.936 161.432C223.917 163.55 220.853 164.65 218.252 165.525V158.785H218.242Z" fill="#FFD600"/>
<path d="M212.768 189.533C211.904 189.727 211.523 188.78 211.141 188.566C210.086 187.986 209.192 187.772 208.158 186.957C202.654 182.681 203.919 174.169 209.212 170.433C215.872 165.739 229.863 165.668 229.451 153.643C229.351 150.68 227.101 145.579 223.907 146.557C223.153 146.791 221.416 148.603 220.733 148.848C219.417 149.336 213.521 149.958 212.758 148.634C212.376 147.962 212.386 146.17 212.758 145.437C225.293 129.391 242.358 152.747 228.386 165.362C224.409 169.893 217.981 170.82 212.949 173.467C207.545 176.318 207.053 182.274 212.778 184.85V189.533H212.768ZM217.78 143.635C217.107 144.378 217.71 145.814 218.875 145.62C220.874 145.284 219.035 142.26 217.78 143.635Z" fill="#FFD600"/>
<path d="M217.981 181.327C221.195 181.449 225.142 185.787 225.283 189.37C225.614 197.77 219.015 198.738 214.154 202.057C213.3 202.637 212.175 203.472 212.005 204.622C211.533 207.921 213.481 207.595 213.561 209.591C213.602 210.579 212.889 213.043 211.774 212.299C211.663 212.228 211.613 211.79 211.442 211.668C203.839 206.017 210.538 196.742 217.248 195.072C218.654 193.463 221.486 192.995 221.597 190.236C221.707 187.64 219.437 186.927 217.971 185.573V181.327H217.981Z" fill="#FFD600"/>
<path d="M220.15 200.845C224.208 204.327 222.933 209.927 219.407 213.256C217.348 215.191 212.356 216.036 212.286 219.844C212.256 221.595 213.672 222.481 213.712 223.896C213.843 228.743 210.147 225.077 209.554 222.583C208.469 218.032 210.92 214.305 214.003 211.8C215.45 210.619 218.965 209.286 219.256 207.249C219.628 204.633 218.272 205.142 218.011 204.286C217.83 203.686 217.901 200.896 218.292 200.448C219.598 199.532 219.548 200.346 220.15 200.855V200.845Z" fill="#FFD600"/>
<path d="M217.459 172.54L217.207 193.718C215.902 194.329 215.108 195.714 213.551 195.673L213.351 174.495C213.22 173.406 217.238 172.296 217.448 172.53L217.459 172.54Z" fill="#FFD600"/>
<path d="M214.927 229.15C213.3 230.82 214.566 233.294 214.335 235.33L213.682 235.503C211.161 232.988 211.894 228.478 214.064 225.963C215.239 224.609 219.286 222.45 218.975 220.18C217.71 218.663 216.675 215.262 219.045 214.549C222.932 216.392 222.551 222.583 219.949 225.556C218.523 227.185 216.113 227.938 214.937 229.15H214.927Z" fill="#FFD600"/>
<path d="M214.787 151.526C217.207 151.128 219.096 153.246 218.744 155.985C218.393 158.724 215.6 159.243 213.541 158.653C210.518 157.767 211.442 152.075 214.787 151.536V151.526Z" fill="#FFD600"/>
<path d="M217.459 165.81L213.29 167.562L213.14 159.64L213.451 159.406C214.767 159.691 216.424 158.49 217.449 159.508V165.8L217.459 165.81Z" fill="#FFD600"/>
<path d="M215.631 234.628C216.334 234.546 217.619 233.365 217.911 232.642C218.594 230.891 216.796 228.814 218.413 227.633L219.156 227.887C220.984 232.469 219.136 236.196 215.5 238.435L214.596 237.855V241.958C213.642 241.246 213.692 239.148 213.843 238.028C214.024 236.593 214.938 235.758 215.641 234.638C215.47 234.658 215.289 234.638 215.118 234.638C215.008 232.286 214.345 229.547 216.936 228.783C216.826 229.995 217.117 231.512 216.886 232.673C216.735 233.416 216.042 233.996 215.641 234.638L215.631 234.628Z" fill="#FFD600"/>
<path d="M214.074 210.619V202.708L216.806 201.252L217.197 201.68V208.715L214.074 210.619Z" fill="#FFD600"/>
<path d="M216.936 215.883V222.909C216.555 222.695 214.335 225.383 214.335 223.937V217.197C215.098 216.525 215.892 215.72 216.936 215.883Z" fill="#FFD600"/>
<path d="M214.586 249.269C213.622 248.576 213.732 246.937 214.074 245.909C214.827 243.679 217.117 243.567 217.207 240.635C217.248 239.382 216.514 238.334 217.579 237.56C218.965 239.392 218.614 242.742 217.197 244.453C215.861 246.072 214.044 246.041 214.576 249.269H214.586Z" fill="#FFD600"/>
<path d="M216.414 246.051V254.98L216.022 255.418L215.379 254.98V247.365C215.379 247.049 215.952 245.797 216.424 246.051H216.414Z" fill="#FFD600"/>
<path d="M212.768 181.327C212.818 181.795 212.748 183.547 212.376 183.669L210.428 182.64L209.644 181.47L212.768 181.327Z" fill="#FFD600"/>
<path d="M216.414 238.731C216.263 240.105 216.996 242.763 215.379 243.119C215.148 241.683 214.496 238.7 216.414 238.731Z" fill="#FFD600"/>
<path d="M209.644 178.405L209.765 177.224C213.391 175.32 214.184 179.321 209.644 178.405Z" fill="#FFD600"/>
<path d="M220.582 191L220.321 192.018L217.981 192.455L218.222 191.122L220.582 191Z" fill="#FFD600"/>
<path d="M220.321 188.648L218.232 188.515C217.77 188.159 217.86 186.866 218.523 187.008C219.216 187.354 220.331 187.578 220.331 188.648H220.321Z" fill="#FFD600"/>
<path d="M332 232.469H240.048L238.39 239.107L235.468 222.043L232.123 232.469C231.129 230.453 231.319 226.543 228.377 226.788C229.712 234.454 220.462 231.41 220.04 233.915C219.498 237.102 226.177 236.643 227.603 235.849C228.839 234.892 227.402 231.604 230.034 232.469C229.712 233.803 231.44 243.037 233.358 241.001C234.503 239.79 233.479 232.428 235.859 231.522L238.782 249.523L242.187 236.206L331.99 235.788V232.459L332 232.469Z" fill="#FFD600"/>
<path d="M210.649 233.029V236.501L199.49 236.908L196.738 244.351L193.052 239.128C192.138 245.96 191.716 253.596 188.863 260L186.694 251.621L182.857 220.852L179.151 241.734C176.77 242.091 177.715 241.51 177.222 240.502C175.937 237.886 175.485 234.108 174.511 231.288L172.11 236.562L67.01 236.369V233.029H170.362C172.894 231.593 171.658 225.26 174.983 225.189C176.359 225.148 176.278 232.489 178.237 233.019C178.146 230.137 181.029 218.866 182.234 212.635C182.315 212.228 182.385 211.831 182.445 211.464C182.686 210.141 182.797 209.143 182.727 208.695C182.727 208.695 183.068 210.538 183.56 213.46C183.691 214.152 183.821 214.916 183.962 215.72C185.579 225.148 188.241 241.52 188.442 248.678L192.148 230.412C194.408 230.137 193.614 230.412 194.086 231.624C194.85 233.62 195.131 236.155 195.854 238.242L197.692 233.029H210.659H210.649Z" fill="#FFD600"/>
<path d="M191.5 180L168 222.5" stroke="#FFD600" stroke-width="2"/>
</g>
<defs>
<clipPath id="clip0_77_203">
<rect width="265" height="120" fill="white" transform="translate(67 140)"/>
</clipPath>
</defs>
</svg>
